<svg width="34" height="34" viewBox="0 0 34 34" fill="none" xmlns="http://www.w3.org/2000/svg">
<path d="M12.1993 16.2499C11.4224 16.0593 10.6424 15.8715 9.85948 15.6865C8.77369 15.4294 7.77006 15.0426 6.80448 14.4709C6.78978 14.4623 6.78099 14.4666 6.7781 14.4837C6.27477 17.3089 6.20472 20.2761 7.21873 23.0043C8.09221 25.3542 9.83094 27.246 12.1115 28.2046C12.6785 28.443 13.2071 28.6338 13.6972 28.7772C14.5505 29.0268 15.3869 29.3189 16.2065 29.6535C16.2122 29.6558 16.2172 29.6599 16.2206 29.6652C16.2241 29.6705 16.2259 29.6767 16.2259 29.6831L16.225 31.3656C16.2251 31.372 16.2238 31.3783 16.2213 31.3841C16.2189 31.3899 16.2152 31.3952 16.2107 31.3995C16.2061 31.4038 16.2008 31.4071 16.1949 31.4092C16.189 31.4113 16.1828 31.4121 16.1766 31.4117C11.9381 31.0997 8.12291 29.1282 5.49383 25.71C4.32588 24.1917 3.45327 22.4463 2.99318 20.5823C2.19062 17.3279 2.46175 13.885 3.89347 10.8509C4.93775 8.63779 6.51995 6.61938 8.47922 5.1798C9.75051 4.24605 11.1214 3.49536 12.5919 2.92773C12.6089 2.92124 12.6145 2.90929 12.6088 2.89189L12.1465 1.51825C12.1453 1.51448 12.1433 1.511 12.1407 1.50801C12.1381 1.50503 12.1349 1.5026 12.1314 1.50087C12.1279 1.49915 12.124 1.49815 12.1201 1.49794C12.1161 1.49773 12.1122 1.49832 12.1085 1.49966C10.8775 1.95312 9.70583 2.52886 8.59337 3.22689C6.38763 4.61114 4.54555 6.58353 3.21112 8.84269C1.96577 10.9514 1.23931 13.38 1.04602 15.8321C0.777062 19.2494 1.69637 22.8233 3.55662 25.6618C5.66766 28.8831 8.535 31.0803 12.1586 32.2534C12.4354 32.3431 12.7127 32.4232 12.9906 32.4937C17.6326 33.669 22.5175 32.7902 26.424 29.9398C28.3537 28.5313 29.8998 26.7781 31.0625 24.6802C32.2832 22.4773 32.9106 19.9575 32.9919 17.4354C33.0516 15.5744 32.7817 13.7233 32.1824 11.882C31.2761 9.0998 29.5966 6.65036 27.4393 4.73638C25.3239 2.85958 22.7091 1.58994 19.968 1.00092C19.9516 0.997383 19.9419 1.00402 19.9391 1.02084L19.6848 2.50998C19.6835 2.51746 19.6851 2.52516 19.6893 2.5315C19.6935 2.53784 19.6999 2.54233 19.7073 2.54405C21.219 2.88599 22.6078 3.41216 23.8736 4.12258C26.2164 5.43721 28.0902 7.27448 29.495 9.63439C29.6457 9.88781 29.7861 10.1454 29.9161 10.4071C31.4443 13.4833 31.8497 16.7222 31.1325 20.1239C30.3633 23.7712 28.1004 26.9168 25.0727 28.9666C22.7846 30.5161 20.2573 31.3319 17.4907 31.4139C17.4645 31.4148 17.4512 31.4016 17.4509 31.3745C17.4215 29.0826 17.5037 26.4017 19.869 25.2865C20.6166 24.9342 21.5251 24.8254 22.195 24.6625C23.9356 24.2397 25.3325 23.3157 26.3859 21.8905C27.1859 20.8083 27.7146 19.6 27.972 18.2656C28.4433 15.8233 28.0615 13.3548 27.2931 11.0319C27.2907 11.0248 27.2868 11.0184 27.2816 11.0132C27.2764 11.0079 27.27 11.004 27.2631 11.0017C27.2562 10.9993 27.2488 10.9987 27.2417 10.9998C27.2345 11.0009 27.2277 11.0037 27.2218 11.008C26.3336 11.65 25.3709 12.1136 24.3337 12.3989C23.5934 12.6025 22.8418 12.7698 22.0791 12.9008C22.0635 12.9034 22.0574 12.8969 22.0609 12.8813C22.6049 10.6013 22.1171 8.28111 20.7887 6.38395C20.2249 5.57794 19.5477 4.75467 18.7573 3.91415C17.9126 3.01639 17.0462 2.13869 16.158 1.28105C16.1474 1.27043 16.138 1.27146 16.1299 1.28415C15.3449 2.48873 14.5445 3.68241 13.7287 4.86516C12.8821 6.09187 12.2092 7.14334 11.7111 8.38599C10.7018 10.9045 10.8385 13.8761 12.2105 16.2344C12.2115 16.2362 12.2119 16.2382 12.2118 16.2402C12.2116 16.2422 12.2109 16.2442 12.2097 16.2458C12.2086 16.2474 12.2069 16.2487 12.2051 16.2494C12.2032 16.2501 12.2012 16.2503 12.1993 16.2499Z" fill="#84E1BC" stroke="#0E9F6E" stroke-width="2"/>
<path d="M14.4186 7.13843C14.9816 8.16364 15.5903 9.12719 16.2447 10.0291C16.2597 10.0497 16.2672 10.0472 16.2672 10.0216L16.2525 4.25132C16.2524 4.24778 16.2513 4.24437 16.2492 4.24156C16.2471 4.23875 16.2442 4.23668 16.2409 4.23565C16.2376 4.23462 16.234 4.23469 16.2308 4.23583C16.2275 4.23697 16.2247 4.23914 16.2227 4.24202L14.3659 6.9893C14.3564 7.00316 14.3554 7.01777 14.3629 7.03311C14.3755 7.05877 14.3941 7.09388 14.4186 7.13843Z" fill="#84E1BC" stroke="#0E9F6E" stroke-width="2"/>
<path d="M19.2683 7.29326C19.2827 7.26346 19.2935 7.23706 19.3007 7.21405C19.3059 7.19782 19.3032 7.18322 19.2925 7.17024C18.6946 6.43533 18.074 5.72107 17.4305 5.02747C17.4199 5.01626 17.4146 5.01847 17.4146 5.03411L17.4202 10.2432C17.4202 10.2707 17.4288 10.2739 17.4461 10.253C18.1622 9.39089 18.7451 8.38058 19.2683 7.29326Z" fill="#84E1BC" stroke="#0E9F6E" stroke-width="2"/>
<path d="M13.7412 8.00637L13.196 9.1021C13.1893 9.11537 13.1882 9.12909 13.1925 9.14325C13.5598 10.3148 14.1125 11.379 14.8508 12.3357C15.2525 12.8566 15.7437 13.3425 16.2363 13.7895C16.2381 13.7912 16.2404 13.7923 16.2429 13.7927C16.2453 13.7931 16.2479 13.7927 16.2501 13.7917C16.2524 13.7907 16.2544 13.789 16.2557 13.7869C16.2571 13.7848 16.2579 13.7823 16.2579 13.7797C16.2599 13.1392 16.2609 12.4989 16.2609 11.8587C16.2609 11.8038 16.244 11.7812 16.2129 11.7418C15.2968 10.5694 14.4859 9.32396 13.7802 8.00549C13.7669 7.98071 13.7539 7.981 13.7412 8.00637Z" fill="#84E1BC" stroke="#0E9F6E" stroke-width="2"/>
<path d="M19.4635 13.863C20.3496 13.3944 20.6505 12.0132 20.6695 11.1171C20.6912 10.081 20.4538 9.11387 19.9574 8.21581C19.949 8.20077 19.9405 8.20077 19.9318 8.21581C19.7135 8.60126 19.4921 9.05752 19.301 9.38411C18.7518 10.3227 18.1105 11.1698 17.4705 12.038C17.4329 12.0891 17.4126 12.1513 17.4126 12.215L17.4195 15.4495C17.4196 15.4525 17.4206 15.4554 17.4223 15.4578C17.424 15.4603 17.4263 15.4621 17.4291 15.4632C17.4318 15.4642 17.4348 15.4644 17.4376 15.4637C17.4405 15.463 17.443 15.4615 17.445 15.4593C18.0224 14.8017 18.6953 14.2696 19.4635 13.863Z" fill="#84E1BC" stroke="#0E9F6E" stroke-width="2"/>
<path d="M14.2954 13.2505C13.6269 12.4676 13.1266 11.5759 12.7867 10.5962C12.7863 10.5949 12.7854 10.5938 12.7843 10.593C12.7832 10.5922 12.7819 10.5919 12.7805 10.592C12.7792 10.5921 12.7779 10.5926 12.7769 10.5936C12.7759 10.5945 12.7753 10.5957 12.775 10.597C12.6799 11.1231 12.649 11.6478 12.6825 12.1711C12.7681 13.5041 13.1447 14.7609 13.9131 15.8318C14.2738 16.3351 14.7279 16.9094 15.2757 17.5546C15.6177 17.9569 16.0151 18.4521 16.2179 18.9442C16.2189 18.9467 16.2208 18.9489 16.2231 18.9502C16.2255 18.9515 16.2283 18.9519 16.2309 18.9514C16.2336 18.9509 16.236 18.9494 16.2377 18.9473C16.2394 18.9452 16.2404 18.9425 16.2404 18.9398L16.2564 15.3902C16.2564 15.3518 16.242 15.3149 16.2162 15.2871C15.5771 14.602 14.9042 13.9634 14.2954 13.2505Z" fill="#84E1BC" stroke="#0E9F6E" stroke-width="2"/>
<path d="M19.3042 20.8734C19.1402 21.2699 19.0028 21.6833 18.8921 22.1134C18.8915 22.1161 18.8918 22.1189 18.8927 22.1214C18.8937 22.1239 18.8954 22.1261 18.8976 22.1276C18.8998 22.1291 18.9023 22.1298 18.9049 22.1298C18.9075 22.1297 18.9099 22.1288 18.912 22.1271C19.6704 21.5328 20.5115 21.127 21.369 20.7079C21.794 20.4999 22.2139 20.2835 22.5473 20.0755C23.3412 19.5802 24.0181 18.9558 24.5779 18.2023C24.6826 18.0613 24.767 17.9723 24.8313 17.9354C25.1223 17.7681 25.5063 18.0071 25.6019 18.2979C25.6979 18.5913 25.5513 18.7678 25.3524 19.0165C25.0021 19.4538 24.6909 19.8001 24.4188 20.0556C23.4476 20.9677 22.2161 21.497 21.02 22.1103C20.0786 22.5927 19.3046 23.2468 18.5773 24.0172C18.5764 24.0184 18.5707 24.023 18.56 24.0309C18.5516 24.0371 18.5485 24.0464 18.5505 24.0588C18.5507 24.0605 18.5513 24.0622 18.5523 24.0636C18.5532 24.065 18.5545 24.0661 18.556 24.0669C18.5575 24.0676 18.5592 24.0679 18.5609 24.0679C18.5626 24.0678 18.5642 24.0672 18.5656 24.0663C18.7253 23.9666 18.8915 23.8833 19.0642 23.8163C19.7708 23.5425 20.4929 23.3249 21.2306 23.1636C21.7135 23.0582 21.9945 22.9941 22.0738 22.9711C23.075 22.6784 23.9302 22.1504 24.6393 21.3872C26.5852 19.2931 26.9069 16.2202 26.2362 13.5149C26.2352 13.5107 26.2332 13.5067 26.2305 13.5033C26.2277 13.4999 26.2243 13.4972 26.2204 13.4953C26.2166 13.4934 26.2123 13.4924 26.208 13.4923C26.2037 13.4923 26.1995 13.4932 26.1956 13.495C25.0177 14.0584 23.7758 14.2748 22.5149 14.5416C22.0332 14.6434 21.5698 14.7751 21.1247 14.9368C18.9016 15.7453 17.3704 17.7465 17.3497 20.1906C17.3482 20.3596 17.3677 20.6538 17.4081 21.073C17.4706 21.7224 17.5088 22.3738 17.5226 23.0273C17.5227 23.0291 17.5232 23.0309 17.5241 23.0326C17.525 23.0342 17.5263 23.0355 17.5278 23.0365C17.5293 23.0375 17.531 23.038 17.5327 23.0381C17.5345 23.0382 17.5362 23.0378 17.5378 23.037C17.5487 23.0317 17.5551 23.0231 17.5568 23.0113C17.975 20.353 19.3816 17.9863 21.0654 15.9706C21.5415 15.401 22.3618 16.1458 21.884 16.6972C20.7969 17.9525 19.937 19.3446 19.3042 20.8734Z" fill="#84E1BC" stroke="#0E9F6E" stroke-width="2"/>
<path d="M8.25485 17.0946C8.38673 17.3375 8.53548 17.519 8.70326 17.719C10.3911 19.729 12.0617 21.7369 13.7149 23.7428C13.7371 23.7697 13.7455 23.7657 13.74 23.7309L12.854 18.3368C12.8519 18.3245 12.8466 18.3129 12.8387 18.3034C12.8308 18.2939 12.8205 18.2868 12.809 18.2828C12.4743 18.1637 12.1306 18.0261 11.7959 17.9367C11.3133 17.8075 10.8274 17.6938 10.3382 17.5955C9.59576 17.4459 8.95968 17.2778 8.28339 17.0592C8.27879 17.0577 8.27388 17.0577 8.26926 17.0591C8.26465 17.0605 8.26055 17.0633 8.25749 17.0671C8.25443 17.0709 8.25254 17.0755 8.25207 17.0804C8.2516 17.0853 8.25257 17.0902 8.25485 17.0946Z" fill="#84E1BC" stroke="#0E9F6E" stroke-width="2"/>
<path d="M8.32693 20.7878C8.80907 21.0436 9.49012 21.145 10.0311 21.1467C10.034 21.1468 10.0369 21.146 10.0394 21.1444C10.0418 21.1428 10.0438 21.1405 10.0451 21.1378C10.0463 21.1351 10.0467 21.1321 10.0463 21.1291C10.0459 21.1261 10.0447 21.1233 10.0427 21.1211L8.17255 18.8849C8.16016 18.8699 8.15367 18.8723 8.1531 18.892C8.13955 19.5157 8.18812 20.1347 8.29882 20.7489C8.30199 20.7666 8.31136 20.7796 8.32693 20.7878Z" fill="#84E1BC" stroke="#0E9F6E" stroke-width="2"/>
<path d="M16.1373 23.9852C16.1101 22.0505 15.3867 20.283 13.9969 18.9832C13.958 18.9467 13.9424 18.9551 13.9502 19.0085C14.1921 20.6317 14.4646 22.2642 14.7679 23.906C14.8561 24.384 14.9532 24.8503 15.0593 25.3049C15.0733 25.364 15.1005 25.419 15.1389 25.4655L16.1745 26.7188C16.1756 26.7201 16.1771 26.7209 16.1787 26.7213C16.1804 26.7217 16.182 26.7216 16.1836 26.7209C16.1851 26.7203 16.1865 26.7192 16.1874 26.7178C16.1883 26.7164 16.1888 26.7148 16.1888 26.7131C16.1675 25.8023 16.1503 24.893 16.1373 23.9852Z" fill="#84E1BC" stroke="#0E9F6E" stroke-width="2"/>
<path d="M9.76095 23.4332C10.5987 23.7993 11.4711 23.9761 12.3784 23.9638C12.3817 23.9638 12.3849 23.9628 12.3876 23.961C12.3904 23.9591 12.3926 23.9565 12.394 23.9534C12.3953 23.9503 12.3958 23.9468 12.3953 23.9434C12.3949 23.94 12.3935 23.9368 12.3913 23.9341C11.9116 23.3556 11.4348 22.7868 10.9609 22.2277C10.9295 22.1908 10.8936 22.174 10.8532 22.1772C10.0841 22.2398 9.34497 22.165 8.63581 21.9529C8.6214 21.9484 8.61606 21.9537 8.61981 21.9688C8.70312 22.306 8.82348 22.6289 8.98088 22.9375C9.09547 23.1619 9.58236 23.3548 9.76095 23.4332Z" fill="#84E1BC" stroke="#0E9F6E" stroke-width="2"/>
<path d="M12.7557 26.6413C13.0893 26.7856 13.3418 26.8818 13.5133 26.9298C14.1083 27.0977 14.7045 27.2666 15.3018 27.4365C15.3159 27.4407 15.3182 27.437 15.3087 27.4255L13.3399 25.08C13.3275 25.0653 13.3121 25.0536 13.2947 25.0459C13.2773 25.0381 13.2585 25.0345 13.2396 25.0353C12.1763 25.0849 11.0966 24.9818 10.0817 24.6216C10.0794 24.6208 10.077 24.6208 10.0748 24.6215C10.0725 24.6223 10.0706 24.6238 10.0692 24.6258C10.0679 24.6279 10.0673 24.6303 10.0674 24.6327C10.0675 24.6351 10.0685 24.6374 10.07 24.6393C10.819 25.524 11.7142 26.1914 12.7557 26.6413Z" fill="#84E1BC" stroke="#0E9F6E" stroke-width="2"/>
<path d="M12.1993 16.2499L12.2051 16.2494L12.2097 16.2458L12.2118 16.2402L12.2105 16.2344C10.8385 13.8761 10.7018 10.9045 11.7111 8.38599C12.2092 7.14334 12.8821 6.09187 13.7287 4.86516C14.5445 3.6824 15.3449 2.48873 16.1299 1.28415C16.138 1.27146 16.1474 1.27043 16.158 1.28105C17.0462 2.13869 17.9126 3.01639 18.7573 3.91415C19.5477 4.75467 20.2249 5.57794 20.7887 6.38395C22.1171 8.28111 22.6049 10.6013 22.0609 12.8813C22.0574 12.8969 22.0635 12.9034 22.0791 12.9008C22.8418 12.7698 23.5934 12.6025 24.3337 12.3989C25.3709 12.1136 26.3336 11.65 27.2218 11.008C27.2277 11.0037 27.2345 11.0009 27.2417 10.9998C27.2488 10.9987 27.2562 10.9993 27.2631 11.0017C27.27 11.004 27.2763 11.0079 27.2816 11.0132C27.2868 11.0184 27.2907 11.0248 27.2931 11.0319C28.0615 13.3548 28.4433 15.8233 27.972 18.2656C27.7146 19.6 27.1859 20.8083 26.3859 21.8905C25.3325 23.3157 23.9356 24.2397 22.195 24.6625C21.5251 24.8254 20.6166 24.9342 19.869 25.2865C17.5037 26.4017 17.4215 29.0826 17.4509 31.3745C17.4512 31.4016 17.4645 31.4148 17.4907 31.4139C20.2573 31.3319 22.7846 30.5161 25.0727 28.9666C28.1004 26.9168 30.3633 23.7712 31.1325 20.1239C31.8497 16.7222 31.4443 13.4833 29.9161 10.4071C29.7861 10.1454 29.6457 9.88781 29.495 9.63439C28.0902 7.27448 26.2164 5.43721 23.8736 4.12258C22.6078 3.41216 21.219 2.88599 19.7073 2.54405C19.6999 2.54233 19.6935 2.53784 19.6893 2.5315C19.6851 2.52516 19.6835 2.51746 19.6848 2.50998L19.9391 1.02084C19.9419 1.00402 19.9516 0.997383 19.968 1.00092C22.7091 1.58994 25.3239 2.85958 27.4393 4.73638C29.5966 6.65036 31.2761 9.0998 32.1824 11.882C32.7817 13.7233 33.0516 15.5744 32.9919 17.4354C32.9106 19.9575 32.2832 22.4773 31.0625 24.6802C29.8998 26.7781 28.3537 28.5313 26.424 29.9398C22.5175 32.7902 17.6326 33.669 12.9906 32.4937C12.7127 32.4232 12.4354 32.3431 12.1586 32.2534C8.535 31.0803 5.66766 28.8831 3.55662 25.6618C1.69637 22.8233 0.777062 19.2494 1.04602 15.8321C1.23931 13.38 1.96577 10.9514 3.21112 8.84269C4.54555 6.58353 6.38763 4.61114 8.59337 3.22689C9.70583 2.52886 10.8775 1.95312 12.1085 1.49966C12.1122 1.49832 12.1161 1.49773 12.1201 1.49794C12.124 1.49815 12.1279 1.49915 12.1314 1.50087C12.1349 1.5026 12.1381 1.50503 12.1407 1.50801C12.1433 1.511 12.1453 1.51448 12.1465 1.51825L12.6088 2.89189C12.6145 2.90929 12.6089 2.92124 12.5919 2.92773C11.1214 3.49536 9.75051 4.24605 8.47922 5.1798C6.51995 6.61938 4.93775 8.63779 3.89347 10.8509C2.46175 13.885 2.19062 17.3279 2.99318 20.5823C3.45327 22.4463 4.32588 24.1917 5.49383 25.71C8.12291 29.1282 11.9381 31.0997 16.1766 31.4117C16.1828 31.4121 16.189 31.4113 16.1949 31.4092C16.2008 31.4071 16.2061 31.4038 16.2107 31.3995C16.2152 31.3952 16.2189 31.3899 16.2213 31.3841C16.2238 31.3783 16.2251 31.372 16.225 31.3656L16.2259 29.6831C16.2259 29.6767 16.2241 29.6705 16.2206 29.6652C16.2172 29.6599 16.2122 29.6558 16.2065 29.6535C15.3869 29.3189 14.5505 29.0268 13.6972 28.7772C13.2071 28.6338 12.6785 28.443 12.1115 28.2046C9.83094 27.2461 8.09221 25.3542 7.21873 23.0043C6.20472 20.2761 6.27477 17.3089 6.7781 14.4837C6.78098 14.4666 6.78978 14.4623 6.80448 14.4709C7.77006 15.0426 8.77369 15.4294 9.85948 15.6865C10.6424 15.8715 11.4224 16.0593 12.1993 16.2499ZM14.4184 7.13848C14.9814 8.16369 15.5901 9.12724 16.2445 10.0291C16.2595 10.0498 16.267 10.0473 16.267 10.0216L16.2523 4.25136C16.2522 4.24783 16.251 4.24442 16.2489 4.2416C16.2469 4.23879 16.2439 4.23673 16.2406 4.2357C16.2373 4.23467 16.2338 4.23473 16.2305 4.23587C16.2273 4.23702 16.2244 4.23918 16.2225 4.24207L14.3657 6.98934C14.3562 7.00321 14.3551 7.01781 14.3626 7.03315C14.3753 7.05882 14.3939 7.09393 14.4184 7.13848ZM19.2684 7.29336C19.2828 7.26357 19.2936 7.23716 19.3008 7.21415C19.306 7.19792 19.3033 7.18332 19.2926 7.17034C18.6947 6.43543 18.074 5.72118 17.4306 5.02757C17.42 5.01636 17.4146 5.01857 17.4146 5.03421L17.4202 10.2433C17.4202 10.2708 17.4289 10.274 17.4462 10.2531C18.1623 9.39099 18.7452 8.38068 19.2684 7.29336ZM13.7408 8.00629L13.1956 9.10201C13.1889 9.11529 13.1878 9.12901 13.1921 9.14317C13.5594 10.3147 14.1121 11.3789 14.8504 12.3356C15.2521 12.8565 15.7433 13.3424 16.2359 13.7894L16.2425 13.7926L16.2497 13.7916L16.2553 13.7868L16.2575 13.7796C16.2595 13.1391 16.2605 12.4988 16.2605 11.8586C16.2605 11.8037 16.2436 11.7811 16.2125 11.7418C15.2964 10.5693 14.4854 9.32387 13.7797 8.00541C13.7665 7.98062 13.7535 7.98092 13.7408 8.00629ZM19.4638 13.8633C20.3498 13.3946 20.6508 12.0135 20.6698 11.1173C20.6914 10.0812 20.4541 9.11411 19.9576 8.21605C19.9493 8.20101 19.9408 8.20101 19.9321 8.21605C19.7138 8.6015 19.4924 9.05776 19.3012 9.38435C18.7521 10.323 18.1108 11.17 17.4708 12.0383C17.4332 12.0894 17.4129 12.1515 17.4129 12.2153L17.4198 15.4498C17.4199 15.4528 17.4209 15.4557 17.4226 15.4581C17.4243 15.4605 17.4266 15.4624 17.4294 15.4634C17.4321 15.4645 17.4351 15.4646 17.4379 15.464C17.4408 15.4633 17.4433 15.4617 17.4453 15.4595C18.0227 14.8019 18.6956 14.2698 19.4638 13.8633ZM14.2952 13.2504C13.6267 12.4675 13.1264 11.5758 12.7865 10.596L12.7841 10.5929L12.7803 10.5919L12.7767 10.5934L12.7748 10.5969C12.6797 11.1229 12.6488 11.6476 12.6823 12.171C12.7679 13.5039 13.1445 14.7607 13.9129 15.8317C14.2736 16.335 14.7277 16.9093 15.2755 17.5545C15.6175 17.9567 16.0149 18.4519 16.2177 18.944C16.2187 18.9466 16.2206 18.9487 16.2229 18.95C16.2253 18.9514 16.2281 18.9518 16.2307 18.9513C16.2334 18.9507 16.2358 18.9493 16.2375 18.9472C16.2392 18.9451 16.2402 18.9424 16.2402 18.9396L16.2562 15.39C16.2562 15.3517 16.2418 15.3148 16.216 15.2869C15.5769 14.6019 14.904 13.9633 14.2952 13.2504ZM19.3043 20.8735C19.1402 21.27 19.0029 21.6834 18.8922 22.1135C18.8916 22.1162 18.8918 22.1189 18.8928 22.1215C18.8938 22.124 18.8955 22.1262 18.8977 22.1277C18.8998 22.1292 18.905 22.1298 18.905 22.1298L18.9121 22.1272C19.6705 21.5329 20.5116 21.1271 21.369 20.708C21.7941 20.5 22.214 20.2836 22.5474 20.0756C23.3413 19.5803 24.0182 18.9558 24.578 18.2024C24.6826 18.0613 24.7671 17.9724 24.8314 17.9355C25.1224 17.7682 25.5064 18.0072 25.6019 18.2979C25.6979 18.5913 25.5513 18.7679 25.3524 19.0166C25.0022 19.4538 24.691 19.8002 24.4189 20.0557C23.4477 20.9678 22.2161 21.497 21.0201 22.1104C20.0787 22.5928 19.3047 23.2468 18.5774 24.0173C18.5774 24.0173 18.5707 24.023 18.5601 24.031C18.5517 24.0372 18.5485 24.0465 18.5506 24.0589L18.5523 24.0636L18.5561 24.0669L18.561 24.0679L18.5657 24.0664C18.7254 23.9667 18.8916 23.8834 19.0643 23.8164C19.7708 23.5426 20.493 23.325 21.2307 23.1636C21.7135 23.0583 21.9946 22.9942 22.0739 22.9711C23.0751 22.6785 23.9302 22.1505 24.6394 21.3873C26.5852 19.2932 26.907 16.2202 26.2363 13.515C26.2352 13.5107 26.2333 13.5068 26.2305 13.5034C26.2278 13.5 26.2244 13.4972 26.2205 13.4953C26.2166 13.4934 26.2124 13.4924 26.2081 13.4924C26.2038 13.4923 26.1996 13.4933 26.1956 13.4951C25.0178 14.0584 23.7759 14.2748 22.5149 14.5417C22.0332 14.6435 21.5698 14.7752 21.1247 14.9369C18.9017 15.7454 17.3705 17.7465 17.3498 20.1907C17.3483 20.3597 17.3678 20.6539 17.4081 21.0731C17.4707 21.7224 17.5089 22.3739 17.5227 23.0273L17.5242 23.0326L17.5278 23.0366L17.5328 23.0382L17.5379 23.0371C17.5488 23.0318 17.5552 23.0232 17.5569 23.0114C17.975 20.3531 19.3817 17.9864 21.0655 15.9706C21.5416 15.4011 22.3619 16.1459 21.884 16.6973C20.797 17.9526 19.937 19.3447 19.3043 20.8735ZM8.25523 17.0947C8.38711 17.3376 8.53586 17.5191 8.70364 17.7191C10.3915 19.7291 12.0621 21.7371 13.7153 23.7429C13.7375 23.7698 13.7459 23.7658 13.7404 23.731L12.8544 18.3369C12.8523 18.3246 12.847 18.313 12.8391 18.3035C12.8312 18.2941 12.8209 18.2869 12.8094 18.2829C12.4747 18.1639 12.131 18.0262 11.7963 17.9368C11.3137 17.8076 10.8278 17.6939 10.3386 17.5956C9.59614 17.4461 8.96006 17.2779 8.28377 17.0593C8.27917 17.0578 8.27426 17.0578 8.26964 17.0592C8.26503 17.0606 8.26093 17.0634 8.25787 17.0672C8.25481 17.071 8.25292 17.0756 8.25245 17.0805C8.25198 17.0854 8.25295 17.0903 8.25523 17.0947ZM8.32701 20.7881C8.80915 21.0439 9.4902 21.1452 10.0311 21.147C10.0341 21.1471 10.037 21.1462 10.0394 21.1446C10.0419 21.1431 10.0439 21.1408 10.0451 21.1381C10.0464 21.1353 10.0468 21.1323 10.0464 21.1293C10.046 21.1264 10.0448 21.1236 10.0428 21.1213L8.17264 18.8852C8.16024 18.8701 8.15375 18.8725 8.15318 18.8923C8.13963 19.516 8.1882 20.1349 8.2989 20.7492C8.30207 20.7669 8.31144 20.7798 8.32701 20.7881ZM16.1373 23.985C16.11 22.0502 15.3866 20.2827 13.9968 18.983C13.9579 18.9464 13.9423 18.9548 13.9501 19.0082C14.192 20.6314 14.4645 22.264 14.7678 23.9058C14.856 24.3837 14.9532 24.85 15.0593 25.3046C15.0732 25.3637 15.1004 25.4187 15.1388 25.4653L16.1745 26.7185L16.1787 26.7211L16.1835 26.7207L16.1873 26.7176L16.1887 26.7128C16.1674 25.8021 16.1502 24.8928 16.1373 23.985ZM9.76089 23.4331C10.5986 23.7993 11.4711 23.9761 12.3783 23.9638C12.3816 23.9638 12.3848 23.9628 12.3876 23.961C12.3904 23.9591 12.3925 23.9565 12.3939 23.9534C12.3953 23.9503 12.3957 23.9468 12.3953 23.9434C12.3948 23.94 12.3934 23.9368 12.3913 23.9341C11.9116 23.3556 11.4348 22.7867 10.9608 22.2277C10.9294 22.1908 10.8935 22.174 10.8532 22.1772C10.084 22.2398 9.34491 22.165 8.63575 21.9529C8.62134 21.9484 8.616 21.9537 8.61975 21.9688C8.70306 22.306 8.82342 22.6289 8.98082 22.9375C9.09541 23.1619 9.5823 23.3548 9.76089 23.4331ZM12.7558 26.6415C13.0893 26.7858 13.3419 26.882 13.5134 26.9301C14.1084 27.0979 14.7045 27.2668 15.3018 27.4368C15.316 27.4409 15.3183 27.4372 15.3088 27.4257L13.34 25.0803C13.3276 25.0655 13.3121 25.0538 13.2948 25.0461C13.2774 25.0384 13.2585 25.0348 13.2397 25.0356C12.1764 25.0851 11.0966 24.982 10.0817 24.6218L10.0748 24.6218L10.0693 24.6261L10.0675 24.6329L10.0701 24.6395C10.819 25.5243 11.7142 26.1916 12.7558 26.6415Z" fill="#0E9F6E"/>
<path d="M14.4186 7.13843C14.3941 7.09388 14.3755 7.05877 14.3629 7.03311C14.3554 7.01777 14.3564 7.00316 14.3659 6.9893L16.2227 4.24202C16.2247 4.23914 16.2275 4.23697 16.2308 4.23583C16.234 4.23469 16.2376 4.23462 16.2409 4.23565C16.2442 4.23668 16.2471 4.23875 16.2492 4.24156C16.2513 4.24437 16.2524 4.24778 16.2525 4.25132L16.2672 10.0216C16.2672 10.0472 16.2597 10.0497 16.2447 10.0291C15.5903 9.12719 14.9816 8.16364 14.4186 7.13843Z" fill="#1F2A37"/>
<path d="M19.2688 7.29326C18.7456 8.38058 18.1627 9.39089 17.4466 10.253C17.4293 10.2739 17.4207 10.2707 17.4207 10.2432L17.415 5.03411C17.415 5.01847 17.4204 5.01626 17.431 5.02747C18.0745 5.72107 18.6951 6.43533 19.293 7.17024C19.3037 7.18322 19.3064 7.19782 19.3012 7.21405C19.294 7.23706 19.2832 7.26346 19.2688 7.29326Z" fill="#1F2A37"/>
<path d="M13.196 9.1021L13.7412 8.00637C13.7539 7.981 13.7669 7.98071 13.7802 8.00549C14.4859 9.32396 15.2968 10.5694 16.2129 11.7418C16.244 11.7812 16.2609 11.8038 16.2609 11.8587C16.2609 12.4989 16.2599 13.1392 16.2579 13.7797C16.2579 13.7823 16.2571 13.7848 16.2557 13.7869C16.2544 13.789 16.2524 13.7907 16.2501 13.7917C16.2479 13.7927 16.2453 13.7931 16.2429 13.7927C16.2404 13.7923 16.2381 13.7912 16.2363 13.7895C15.7437 13.3425 15.2525 12.8566 14.8508 12.3357C14.1125 11.379 13.5598 10.3148 13.1925 9.14325C13.1882 9.12909 13.1893 9.11537 13.196 9.1021Z" fill="#1F2A37"/>
<path d="M20.6705 11.1171C20.6515 12.0132 20.3505 13.3944 19.4645 13.863C18.6963 14.2696 18.0234 14.8017 17.446 15.4593C17.444 15.4615 17.4415 15.463 17.4386 15.4637C17.4358 15.4644 17.4328 15.4642 17.4301 15.4632C17.4273 15.4621 17.4249 15.4603 17.4232 15.4578C17.4215 15.4554 17.4206 15.4525 17.4205 15.4495L17.4136 12.215C17.4136 12.1513 17.4339 12.0891 17.4715 12.038C18.1115 11.1698 18.7528 10.3227 19.3019 9.38411C19.4931 9.05752 19.7144 8.60126 19.9328 8.21581C19.9415 8.20077 19.95 8.20077 19.9583 8.21581C20.4547 9.11387 20.6921 10.081 20.6705 11.1171Z" fill="#1F2A37"/>
<path d="M12.7867 10.5956C13.1266 11.5754 13.6269 12.4671 14.2954 13.2499C14.9042 13.9629 15.5771 14.6015 16.2162 15.2865C16.242 15.3144 16.2564 15.3513 16.2564 15.3896L16.2404 18.9392C16.2404 18.942 16.2394 18.9446 16.2377 18.9468C16.236 18.9489 16.2336 18.9503 16.2309 18.9509C16.2283 18.9514 16.2255 18.9509 16.2231 18.9496C16.2208 18.9483 16.2189 18.9462 16.2179 18.9436C16.0151 18.4515 15.6177 17.9563 15.2757 17.5541C14.7279 16.9088 14.2738 16.3346 13.9131 15.8313C13.1447 14.7603 12.7681 13.5035 12.6825 12.1706C12.649 11.6472 12.6799 11.1225 12.775 10.5965C12.7753 10.5951 12.7759 10.5939 12.7769 10.593C12.7779 10.5921 12.7792 10.5915 12.7805 10.5914C12.7819 10.5913 12.7832 10.5917 12.7843 10.5925C12.7854 10.5932 12.7863 10.5943 12.7867 10.5956Z" fill="#1F2A37"/>
<path d="M19.3047 20.8734C19.9374 19.3446 20.7974 17.9525 21.8845 16.6972C22.3623 16.1458 21.542 15.401 21.0659 15.9706C19.3821 17.9863 17.9754 20.353 17.5573 23.0113C17.5556 23.0231 17.5492 23.0317 17.5383 23.037C17.5367 23.0378 17.535 23.0382 17.5332 23.0381C17.5315 23.038 17.5298 23.0375 17.5283 23.0365C17.5268 23.0355 17.5255 23.0342 17.5246 23.0326C17.5237 23.0309 17.5232 23.0291 17.5231 23.0273C17.5093 22.3738 17.4711 21.7224 17.4085 21.073C17.3682 20.6538 17.3487 20.3596 17.3502 20.1906C17.3709 17.7465 18.9021 15.7453 21.1251 14.9368C21.5702 14.7751 22.0336 14.6434 22.5154 14.5416C23.7763 14.2748 25.0182 14.0584 26.1961 13.495C26.2 13.4932 26.2042 13.4923 26.2085 13.4923C26.2128 13.4924 26.217 13.4934 26.2209 13.4953C26.2248 13.4972 26.2282 13.4999 26.2309 13.5033C26.2337 13.5067 26.2356 13.5107 26.2367 13.5149C26.9074 16.2202 26.5857 19.2931 24.6398 21.3872C23.9306 22.1504 23.0755 22.6784 22.0743 22.9711C21.995 22.9941 21.7139 23.0582 21.2311 23.1636C20.4934 23.3249 19.7713 23.5425 19.0647 23.8163C18.892 23.8833 18.7258 23.9666 18.5661 24.0663C18.5647 24.0672 18.5631 24.0678 18.5614 24.0679C18.5597 24.0679 18.558 24.0676 18.5565 24.0669C18.555 24.0661 18.5537 24.065 18.5527 24.0636C18.5518 24.0622 18.5512 24.0605 18.551 24.0588C18.549 24.0464 18.5521 24.0371 18.5605 24.0309C18.5712 24.023 18.5769 24.0184 18.5778 24.0172C19.3051 23.2468 20.0791 22.5927 21.0205 22.1103C22.2166 21.497 23.4481 20.9677 24.4193 20.0556C24.6914 19.8001 25.0026 19.4538 25.3529 19.0165C25.5518 18.7678 25.6984 18.5913 25.6024 18.2979C25.5068 18.0071 25.1228 17.7681 24.8318 17.9354C24.7675 17.9723 24.683 18.0613 24.5784 18.2023C24.0186 18.9558 23.3417 19.5802 22.5478 20.0755C22.2144 20.2835 21.7945 20.4999 21.3695 20.7079C20.512 21.127 19.6709 21.5328 18.9125 22.1271C18.9104 22.1288 18.908 22.1297 18.9054 22.1298C18.9028 22.1298 18.9002 22.1291 18.8981 22.1276C18.8959 22.1261 18.8942 22.1239 18.8932 22.1214C18.8922 22.1189 18.892 22.1161 18.8926 22.1134C19.0033 21.6833 19.1407 21.2699 19.3047 20.8734Z" fill="#1F2A37"/>
<path d="M8.25534 17.0946C8.25305 17.0902 8.25209 17.0853 8.25256 17.0804C8.25303 17.0755 8.25491 17.0709 8.25798 17.0671C8.26104 17.0633 8.26514 17.0605 8.26975 17.0591C8.27436 17.0577 8.27928 17.0577 8.28387 17.0592C8.96017 17.2778 9.59625 17.4459 10.3387 17.5955C10.8279 17.6938 11.3138 17.8075 11.7964 17.9367C12.1311 18.0261 12.4748 18.1637 12.8095 18.2828C12.821 18.2868 12.8313 18.2939 12.8392 18.3034C12.8471 18.3129 12.8524 18.3245 12.8545 18.3368L13.7405 23.7309C13.746 23.7657 13.7376 23.7697 13.7154 23.7428C12.0622 21.7369 10.3916 19.729 8.70375 17.719C8.53597 17.519 8.38722 17.3375 8.25534 17.0946Z" fill="#1F2A37"/>
<path d="M10.0311 21.1467C9.49012 21.145 8.80907 21.0436 8.32693 20.7878C8.31136 20.7796 8.30199 20.7666 8.29882 20.7489C8.18812 20.1347 8.13955 19.5157 8.1531 18.892C8.15367 18.8723 8.16016 18.8699 8.17255 18.8849L10.0427 21.1211C10.0447 21.1233 10.0459 21.1261 10.0463 21.1291C10.0467 21.1321 10.0463 21.1351 10.0451 21.1378C10.0438 21.1405 10.0418 21.1428 10.0394 21.1444C10.0369 21.146 10.034 21.1468 10.0311 21.1467Z" fill="#1F2A37"/>
<path d="M13.9974 18.9827C15.3872 20.2824 16.1106 22.0499 16.1378 23.9847C16.1508 24.8925 16.1679 25.8018 16.1893 26.7125C16.1893 26.7142 16.1888 26.7159 16.1879 26.7173C16.1869 26.7187 16.1856 26.7198 16.1841 26.7204C16.1825 26.721 16.1808 26.7211 16.1792 26.7208C16.1776 26.7204 16.1761 26.7195 16.175 26.7183L15.1394 25.465C15.101 25.4184 15.0738 25.3634 15.0598 25.3043C14.9537 24.8497 14.8566 24.3834 14.7684 23.9055C14.4651 22.2637 14.1925 20.6312 13.9507 19.0079C13.9429 18.9545 13.9585 18.9461 13.9974 18.9827Z" fill="#1F2A37"/>
<path d="M9.76095 23.4332C9.58236 23.3548 9.09547 23.1619 8.98088 22.9375C8.82348 22.6289 8.70312 22.306 8.61981 21.9688C8.61606 21.9537 8.6214 21.9484 8.63581 21.9529C9.34497 22.165 10.0841 22.2398 10.8532 22.1772C10.8936 22.174 10.9295 22.1908 10.9609 22.2277C11.4348 22.7868 11.9116 23.3556 12.3913 23.9341C12.3935 23.9368 12.3949 23.94 12.3953 23.9434C12.3958 23.9468 12.3953 23.9503 12.394 23.9534C12.3926 23.9565 12.3904 23.9591 12.3876 23.961C12.3849 23.9628 12.3817 23.9638 12.3784 23.9638C11.4711 23.9761 10.5987 23.7993 9.76095 23.4332Z" fill="#1F2A37"/>
<path d="M12.7562 26.6413C11.7147 26.1914 10.8194 25.524 10.0705 24.6393C10.0689 24.6374 10.068 24.6351 10.0679 24.6327C10.0677 24.6303 10.0684 24.6279 10.0697 24.6258C10.0711 24.6238 10.073 24.6223 10.0752 24.6215C10.0775 24.6208 10.0799 24.6208 10.0822 24.6216C11.0971 24.9818 12.1768 25.0849 13.2401 25.0353C13.259 25.0345 13.2778 25.0381 13.2952 25.0459C13.3126 25.0536 13.328 25.0653 13.3404 25.08L15.3092 27.4255C15.3187 27.437 15.3164 27.4407 15.3023 27.4365C14.705 27.2666 14.1088 27.0977 13.5138 26.9298C13.3423 26.8818 13.0898 26.7856 12.7562 26.6413Z" fill="#1F2A37"/>
</svg>
